<svg width="173" height="33" xmlns="http://www.w3.org/2000/svg" fill="none">
 <title>logo.svg</title>

 <g>
  <title>Layer 1</title>
  <path id="svg_1" fill="white" d="m4.19039,32.6066l2.4018,-6.8784l10.22041,0l2.3891,6.8784l4.1904,0l-9.4156,-25.99053l-4.56091,0l-9.41559,25.99053l4.19039,0zm3.5516,-10.1779l3.85821,-11.0917l0.2044,0l3.8582,11.0917l-7.92081,0z"/>
  <path id="svg_2" fill="white" d="m26.8638,32.6066l3.8199,0l0,-11.9039c0,-2.5508 1.9802,-4.3909 4.6886,-4.3909c0.7921,0 1.6864,0.1396 1.993,0.2284l0,-3.6295c-0.3832,-0.0508 -1.137,-0.0889 -1.6225,-0.0889c-2.2996,0 -4.267,1.2945 -4.9824,3.3884l-0.2044,0l0,-3.0965l-3.6922,0l0,19.4929z"/>
  <path id="svg_3" fill="white" d="m48.2342,33c5.5318,0 9.1473,-4.0229 9.1473,-10.051c0,-6.0662 -3.6155,-10.0891 -9.1473,-10.0891c-5.5319,0 -9.1474,4.0229 -9.1474,10.0891c0,6.0281 3.6155,10.051 9.1474,10.051zm0.0127,-3.1854c-3.6155,0 -5.3018,-3.1346 -5.3018,-6.8783c0,-3.7311 1.6863,-6.9037 5.3018,-6.9037c3.59,0 5.2763,3.1726 5.2763,6.9037c0,3.7437 -1.6863,6.8783 -5.2763,6.8783z"/>
  <path id="svg_4" fill="white" d="m74.0759,24.5226c0.0128,3.3123 -2.4656,4.8859 -4.6119,4.8859c-2.3635,0 -3.9988,-1.7005 -3.9988,-4.3529l0,-11.9419l-3.8199,0l0,12.3988c0,4.8351 2.6701,7.3479 6.4389,7.3479c2.9511,0 4.9569,-1.5483 5.864,-3.6295l0.2044,0l0,3.3757l3.756,0l0,-19.4929l-3.8327,0l0,11.4089z"/>
  <path id="svg_5" fill="white" d="m86.8611,21.0327c0,-3.1092 1.9163,-4.8859 4.5736,-4.8859c2.5935,0 4.1649,1.6878 4.1649,4.5179l0,11.9419l3.8199,0l0,-12.3988c0,-4.8225 -2.6701,-7.3479 -6.6817,-7.3479c-2.9511,0 -4.8802,1.3579 -5.7873,3.4265l-0.2427,0l0,-3.1727l-3.6666,0l0,19.4929l3.8199,0l0,-11.5739z"/>
  <path id="svg_6" fill="white" d="m111.888,32.9873c3.578,0 4.983,-2.1701 5.673,-3.4138l0.319,0l0,3.0331l3.731,0l0,-25.99053l-3.82,0l0,9.65763l-0.23,0c-0.69,-1.2056 -1.993,-3.4138 -5.647,-3.4138c-4.74,0 -8.227,3.7184 -8.227,10.0383c0,6.3073 3.436,10.0891 8.201,10.0891zm0.844,-3.2361c-3.411,0 -5.187,-2.9823 -5.187,-6.8911c0,-3.8706 1.737,-6.7768 5.187,-6.7768c3.334,0 5.123,2.7031 5.123,6.7768c0,4.0991 -1.827,6.8911 -5.123,6.8911z"/>
  <path id="svg_7" fill="white" d="m126.6,1.0491l2.743,0l0,7.73285l1.056,0l0,-7.73285l2.742,0l0,-0.93065l-6.541,0l0,0.93065z"/>
  <path id="svg_8" fill="white" d="m135.64,4.87322c0,-1.1337 0.728,-1.77669 1.72,-1.77669c0.946,0 1.516,0.59223 1.516,1.6244l0,4.06102l1.005,0l0,-4.1287c0,-1.67094 -0.894,-2.45353 -2.231,-2.45353c-1.031,0 -1.618,0.42725 -1.925,1.09986l-0.085,0l0,-3.18113l-1.005,0l0,8.6635l1.005,0l0,-3.90873z"/>
  <path id="svg_9" fill="white" d="m144.463,8.91732c1.328,0 2.299,-0.65992 2.606,-1.64133l-0.971,-0.27073c-0.256,0.67683 -0.848,1.01525 -1.635,1.01525c-1.18,0 -1.993,-0.75721 -2.04,-2.14895l4.748,0l0,-0.42303c0,-2.41969 -1.448,-3.24881 -2.811,-3.24881c-1.771,0 -2.947,1.38751 -2.947,3.38418c0,1.99667 1.159,3.33342 3.05,3.33342zm-2.04,-3.90873c0.068,-1.01103 0.788,-1.91206 1.937,-1.91206c1.091,0 1.789,0.8122 1.789,1.91206l-3.726,0z"/>
  <path id="svg_10" fill="white" d="m157.932,0.11845l0,5.65158c0,1.26907 -0.877,2.1828 -2.333,2.1828c-1.457,0 -2.334,-0.91373 -2.334,-2.1828l0,-5.65158l-1.056,0l0,5.73618c0,1.7767 1.337,3.07961 3.39,3.07961c2.052,0 3.389,-1.30291 3.389,-3.07961l0,-5.73618l-1.056,0z"/>
  <path id="svg_11" fill="white" d="m161.284,8.84964c0.421,0 0.766,-0.34265 0.766,-0.76145c0,-0.41879 -0.345,-0.76144 -0.766,-0.76144c-0.422,0 -0.767,0.34265 -0.767,0.76144c0,0.4188 0.345,0.76145 0.767,0.76145z"/>
  <path id="svg_12" fill="white" d="m168.76,2.28432l1.022,0c-0.047,-1.30714 -1.261,-2.28432 -2.947,-2.28432c-1.67,0 -2.981,0.96449 -2.981,2.41969c0,1.16754 0.851,1.8613 2.214,2.25048l1.073,0.30458c0.92,0.25381 1.738,0.57531 1.738,1.43827c0,0.94758 -0.92,1.57365 -2.129,1.57365c-1.04,0 -1.959,-0.45687 -2.045,-1.43828l-1.09,0c0.102,1.42136 1.261,2.38585 3.135,2.38585c2.01,0 3.151,-1.09986 3.151,-2.5043c0,-1.6244 -1.55,-2.14895 -2.453,-2.38584l-0.886,-0.2369c-0.647,-0.1692 -1.686,-0.50762 -1.686,-1.43827c0,-0.82913 0.766,-1.43828 1.925,-1.43828c1.056,0 1.856,0.49917 1.959,1.35367z"/>
  <path id="svg_13" fill="white" d="m172.233,8.84964c0.422,0 0.767,-0.34265 0.767,-0.76145c0,-0.41879 -0.345,-0.76144 -0.767,-0.76144c-0.421,0 -0.766,0.34265 -0.766,0.76144c0,0.4188 0.345,0.76145 0.766,0.76145z"/>
 </g>
</svg>